<?xml version="1.0" encoding="UTF-8"?>
<svg id="Capa_2" data-name="Capa 2" xmlns="http://www.w3.org/2000/svg" viewBox="0 0 115.33 112.02">
  <g id="Capa_2-2" data-name="Capa 2">
    <text transform="translate(55.95 102.85)" style="fill: #008aac;"><tspan style="font-family: Abygaer, Abygaer; font-size: 13.12px;"><tspan x="0" y="0"> </tspan></tspan><tspan style="font-family: CenturyGothic-Bold, &apos;Century Gothic&apos;; font-size: 6.09px; font-weight: 700; letter-spacing: .21em;"><tspan x="-37.35" y="7.3">Diseñadora Gráfica</tspan></tspan></text>
    <g>
      <path d="M55.6,40.24c-.87-.09-1.17-.37-1.87.32l-7.46,10.55L3.69,1.14l54.02,28.14.16.47-2.27,10.49Z" style="fill: #5fd0df;"/>
      <polygon points="3.53 1.95 45.8 51.44 45.79 51.91 41.33 58.17 40.85 58.17 25.26 46.98 21.13 46.73 3.53 1.95" style="fill: #5fd0df;"/>
      <polygon points="113.68 61.17 59.01 61.16 73.14 48.12 85.54 45.26 86.06 45.39 113.68 61.17" style="fill: #5fd0df;"/>
      <path d="M112.71,61.98l-60.65,12.08-7-2.67c-.09-.37.07-.27.2-.37,4.2-3.27,8.84-6.14,13.19-9.19,18.09-.04,36.18-.02,54.26.16Z" style="fill: #5fd0df;"/>
      <path d="M46.36,82.26l-22.64-31.46c-.47-.61-1.12-1.15-1.84-.57l-15.09,12.89,9.31-15.42,9.17-.06,21.27,15.23.12.45-2.56,8,2.26,10.94Z" style="fill: #5fd0df;"/>
      <path d="M71.99,47.21L100.86,4.22l-19.48,41.27-.39.26c-2.44.23-5.31,1.54-7.67,1.75-.53.05-.85-.2-1.33-.29Z" style="fill: #5fd0df;"/>
      <polygon points="72.31 47.87 58.36 60.84 54.79 40.73 72.31 47.87" style="fill: #5fd0df;"/>
      <polygon points="57.84 61.46 45.06 70.41 54.15 41.54 57.84 61.46" style="fill: #5fd0df;"/>
      <path d="M22.47,50.64c.18-.03.32,0,.46.13l21.13,29.46-.93.66-.25-.08-22.28-28.63c.03-.2,1.63-1.51,1.89-1.54Z" style="fill: #008aab;"/>
      <polygon points="47.01 62.46 41.67 58.65 53.33 42.19 47.01 62.46" style="fill: #008aab;"/>
      <polygon points="54.79 74.15 47.17 83.23 44.74 71.87 51.67 74.6 54.79 74.15" style="fill: #008caa;"/>
      <polygon points="64.04 43.81 56.11 40.45 58.2 30.34 64.04 43.81" style="fill: #5fd0df;"/>
      <path d="M20.56,46.89L2.41.44c.26-.82,2.72.69,3.23.95,17.69,8.86,34.93,18.65,52.62,27.52l6.59,15.15,6.56,2.84L101.61,1.96l.48-.34.39.27-20.43,43.53,3.53-.78,28.64,16.23c.52.34,1.4.73.59,1.34l-58.92,11.65-8.23,9.78-.74.35-2.44-3.18-1.69.89-22.79-29.13-12.74,10.94c-.63.53-1.32.1-1.06-.73.16-.52,1.28-2.11,1.65-2.74,2.26-3.82,4.74-8.13,7.2-11.78.29-.43.8-1.38,1.38-1.38h4.14ZM55.6,40.24l2.27-10.49-.16-.47L3.69,1.14l42.58,49.96,7.46-10.55c.7-.69,1-.41,1.87-.32ZM3.53,1.95l17.59,44.78,4.13.25,15.59,11.19h.48s4.46-6.25,4.46-6.25v-.48S3.53,1.95,3.53,1.95ZM71.99,47.21c.49.09.8.34,1.33.29,2.36-.22,5.23-1.52,7.67-1.75l.39-.26L100.86,4.22l-28.87,42.99ZM64.04,43.81l-5.84-13.46-2.09,10.11,7.93,3.35ZM72.31,47.87l-17.52-7.14,3.57,20.12,13.95-12.98ZM57.84,61.46l-3.7-19.92-9.08,28.88,12.78-8.95ZM47.01,62.46l6.33-20.28-11.66,16.47,5.34,3.81ZM113.68,61.17l-27.62-15.77-.52-.13-12.4,2.86-14.13,13.05h54.67ZM46.36,82.26l-2.26-10.94,2.56-8-.12-.45-21.27-15.23-9.17.06-9.31,15.42,15.09-12.89c.72-.57,1.38-.04,1.84.57l22.64,31.46ZM22.47,50.64c-.25.04-1.85,1.34-1.89,1.54l22.28,28.63.25.08.93-.66-21.13-29.46c-.14-.14-.27-.16-.46-.13ZM112.71,61.98c-18.07-.18-36.16-.2-54.26-.16-4.35,3.05-8.99,5.92-13.19,9.19-.13.1-.3,0-.2.37l7,2.67,60.65-12.08ZM54.79,74.15l-3.12.45-6.94-2.73,2.43,11.35,7.62-9.08Z" style="fill: #006273; stroke: #006073; stroke-miterlimit: 10; stroke-width: .39px;"/>
    </g>
    <g>
      <g>
        <rect x="58.06" y="85.71" width="2.3" height="13.77" style="fill: #5fd0df;"/>
        <path d="M62.43,85.74s-.03-.08.02-.07c1,.08,4.12.54,4.07,3.32-.04,2.22-2.23,2.83-2.99,2.98-.04,0-.04,0,0,0,.77.14,3.07.89,3.5,3.33.21,1.17.25,2.01.22,2.6-.03.69.42,1.31,1.08,1.45l.32.07s-4.01.96-4.55-3.25c-.43-3.39-1.45-4.11-1.83-4.26-.03-.01-.03-.06,0-.07.47-.13,1.93-.74,1.76-3.39-.12-1.88-1.11-2.52-1.62-2.72Z" style="fill: #5fd0df;"/>
        <path d="M32.03,95.52l-.39.26c-.15.4-1.21,1.23-1.26,1.53-.09.48.08.84.46,1.11.22.16.57.15.5.5-.97-.07-1.86.38-2.75.68-.24-.04-.05-.77-.17-.77-2.21,1.44-5.35.74-6.03-2.01-.68-2.76,1.26-5.07,4.11-4.8.78.07,1.28.48,1.97.78.07-.35-.08-.68-.09-1-.05-1.38.02-2.8.1-4.14l2.61.43c.1.44-.33.45-.53.74-.48.71.05,3.56-.22,4.59-.13.49-.55.74-1.05.7-.86-.06-1.24-1.09-2.22-1.27-3.38-.62-3.32,4.79-1.36,5.73,1.71.83,3.66-1.12,4.72-2.27.33-.36,1.46-1.67,1.52-2.06.1-.67-.08-1.11-.6-1.49l.12-.21,2.26-.52.19.7c.67-.72,2.47-.99,3.23-.35,1.1.92-.49,2.21-1.03,1.84-.23-.16-.16-1.06-.82-1.21-1.08-.25-1.91.81-2.56,1.51.15.1.31-.11.49-.13.31-.04.6.12.7.43.24.77-.07,2.53.04,3.46.07.59.45.66.51.89.03.12-.04.29-.12.29h-2.8c-.08,0-.15-.18-.12-.29.04-.16.26-.18.34-.3.05-.06.26-.63.26-.68v-2.66Z" style="fill: #5fd0df;"/>
        <path d="M76.89,99.45c-.44-.13.29-.68.35-.87.05-.16.11-.64.13-.84.07-.83.11-3.64-.13-4.33-.1-.29-.76-.56-.56-.86.04-.07,1.01-.15,1.23-.21.42-.1.82-.41,1.29-.32.01.25-.02.5,0,.74,0,.13-.07.25.13.22.82-.9,2.4-1.29,3.5-.7.42.22.61.64.96.88.77-1.06,2.42-1.44,3.62-.91,2.11.94,1.1,4.47,1.41,6.19.03.16.82,1.01.39,1.01h-2.8c-.46,0,.33-.78.35-.87.22-.7.2-3.57.03-4.32-.2-.92-.95-1.58-1.91-1.13-.65.3-.81.82-.87,1.49-.07.72-.11,3.58.16,4.1.1.19.21.21.34.35l-.12.38h-2.71c-.42,0,.21-.66.24-.72.27-.55.22-4.12.03-4.78-.45-1.58-2.46-1.04-2.66.4-.11.79-.11,3.21,0,4.01.03.27.8,1.09.4,1.09h-2.8Z" style="fill: #5fd0df;"/>
        <path d="M12.76,99.65h-3.02l-3.68-9.85c-.08-.1-.08-.09-.16,0-.27.32-.32,1.41-.99.98l.04-.27c.77-1.36,1.21-3.27,1.99-4.58.07-.12.12-.25.29-.27l5.52,13.98Z" style="fill: #5fd0df;"/>
        <path d="M13.73,99.45s-.13-.11-.22-.09c-.05-.34.32-.44.45-.72.25-.51.21-3.65.16-4.39-.02-.35-.08-.84-.3-1.09-.16-.18-.52-.22-.36-.52.12-.23.9-.21,1.2-.28.4-.1.83-.39,1.29-.33l.04,1.05c.98-1.06,2.89-1.44,4.12-.63,1.62,1.07.89,4,1.08,5.64.08.69.52.83.59,1.07.03.12-.04.29-.12.29h-2.8c-.08,0-.15-.17-.12-.29.06-.2.45-.38.51-.89.1-.85.08-3.69-.22-4.41-.56-1.34-2.75-.9-2.99.41-.12.66-.11,3.29-.02,4,.06.51.46.68.51.89.03.12-.04.29-.12.29-.75,0-2.04.11-2.71,0Z" style="fill: #5fd0df;"/>
        <path d="M76.67,98.32c.01,1.44-2.57,1.75-2.88.26-1.48,1.67-5.53,1.32-4.85-1.58.38-1.65,2.82-1.62,4.04-2.07.71-.26.73-.53.6-1.25-.16-.87-1.05-1.32-1.83-.86-.51.31-.39.86-.58,1.34-.47,1.19-2.64.42-1.61-1s4.41-1.58,5.53-.21c.92,1.12.41,3.31.53,4.71s.86.45,1.05.65ZM73.7,97.49c.09-.6-.07-1.39,0-2.01l-.2-.12c-.99.5-2.51.51-2.51,1.95,0,1.95,2.51,1.58,2.72.17Z" style="fill: #5fd0df;"/>
        <path d="M53.34,98.32c.22.61-.66,1.14-1.18,1.21-.89.12-1.35-.18-1.74-.95-1.39,1.69-5.39,1.3-4.81-1.49.37-1.76,2.85-1.68,4.1-2.19.38-.16.54-.21.58-.64.1-1.07-.73-2.02-1.8-1.45-.86.46-.2,1.73-1.24,1.9-1.36.23-1.67-1.13-.63-1.94,1.18-.91,3.71-1.08,4.88-.09,1.26,1.07.66,3.49.79,4.98s.78.47,1.05.65ZM50.37,97.31c.06-.57-.05-1.25,0-1.83l-.2-.12c-.77.39-2.01.48-2.37,1.39-.48,1.2.44,2.3,1.7,1.79.57-.23.81-.62.87-1.22Z" style="fill: #5fd0df;"/>
        <path d="M106.11,95.35h-5.02l-.12.14c-.02,2.06,1.9,3.36,3.8,2.4.53-.26.65-.72,1.12-.9.58.05-.23,1.21-.41,1.43-.81,1.02-2.03,1.2-3.26,1.11-4.58-.32-4.56-8.04,1.14-7.52,1.71.16,3.01,1.56,2.75,3.32ZM104.27,94.74c.08-1.23-.82-2.52-2.16-1.94-.76.33-.99,1.21-1.16,1.94h3.32Z" style="fill: #5fd0df;"/>
        <path d="M39.63,95.35c-.27,2.75,3.22,3.97,4.69,1.65.18-.02.37.04.44.22-.62,1.9-2.05,2.46-3.95,2.32-3.46-.26-4.38-5.17-1.61-6.94,1.5-.96,4.15-.84,5.13.8.31.52.68,1.41.32,1.95h-5.02ZM42.86,94.74c.12-2.86-3.04-2.64-3.23,0h3.23Z" style="fill: #5fd0df;"/>
        <path d="M113.09,92.11l.02.41-4.13,6.23h1.88c.51,0,1.08-.41,1.37-.81.17-.23.33-.83.62-.75.44.23.16.72.15,1.08-.02.38.11.89-.13,1.18h-6.38l-.12-.2,4.18-6.44h-1.88c-.27,0-.92.5-1.08.75-.08.13-.6,1.42-.72.43-.03-.26-.03-1.54.05-1.71.02-.04.16-.18.17-.18h5.98Z" style="fill: #5fd0df;"/>
        <path d="M.12,99.22c.08-.06.42-.15.62-.29,1.21-.85,1.3-2.74,2.22-3.82s2.72-1.57,4.07-1.11c.69.23-.03.29-.23.36-1.57.57-1.48,2.41-2.19,3.54-.61.97-1.91,1.8-3.16,1.83-.27,0-1.9-.08-1.33-.51Z" style="fill: #5fd0df;"/>
        <path d="M92.96,99.45c-.37-.11.35-.8.4-1.18.12-.99.09-3.36,0-4.37-.02-.22-.07-.5-.19-.68-.17-.26-.54-.26-.42-.66l2.44-.53.17,1.05c.46-.97,1.85-1.28,2.8-.92,1.02.4.89,1.55-.03,1.98-1.13.53-.68-.85-1.34-1.04-.77-.23-1.23.47-1.39,1.11-.17.72-.25,3.83.03,4.44.02.05.78.81.33.81h-2.8Z" style="fill: #5fd0df;"/>
        <path d="M92.04,98.36c.06.33.39.58.58.83.04.09-.17.27-.18.27h-2.71s-.21-.16-.18-.27c.07-.27.51-.46.58-1,.11-.88.11-3.49,0-4.37-.03-.22-.16-.51-.28-.68-.09-.14-.51-.29-.33-.57.04-.05,1.01-.18,1.22-.23.19-.04,1.31-.54,1.31-.18v6.2Z" style="fill: #5fd0df;"/>
      </g>
      <path d="M92.17,87.04c.84-.19,1.33.45,1.03,1.24-.21.55-2.04,2.35-2.58,2.6-1.22.58-.26-1.24-.06-1.68.28-.58.98-2.03,1.61-2.17Z" style="fill: #5fd0df;"/>
    </g>
  </g>
</svg>